<?xml version="1.0" standalone="no"?><!DOCTYPE svg PUBLIC "-//W3C//DTD SVG 1.1//EN" "http://www.w3.org/Graphics/SVG/1.1/DTD/svg11.dtd"><svg t="1645865672907" class="icon" viewBox="0 0 1024 1024" version="1.1" xmlns="http://www.w3.org/2000/svg" p-id="3737" xmlns:xlink="http://www.w3.org/1999/xlink" width="200" height="200"><defs><style type="text/css"></style></defs><path d="M706.714919 101.516212a9.656836 9.656836 0 0 0-11.12413 1.262554c-0.272985 0.238862-15.355393 14.365824-64.765637 27.503216-57.326802 13.649239-87.696358 47.123996-103.59772 74.900197v-31.973342c22.487121-17.846379 35.419774-39.685161 38.081375-64.492652 5.800926-54.050985-38.320237-103.392982-40.197007-105.406245a9.179113 9.179113 0 0 0-13.99047 0.511847c-61.592189 80.086907-27.503216 138.642141-8.735512 161.436369-16.890933-16.85681-45.17898-35.215035-93.019561-48.864274-62.650005-17.846379-78.483122-37.433037-82.714386-47.089873a13.99047 13.99047 0 0 0-10.03219-7.950682 8.633143 8.633143 0 0 0-10.57816 6.210404c-4.504249 21.838782-11.635976 82.339032 27.469092 133.89903 33.577127 44.667133 92.780699 70.703056 175.733947 77.903029v107.863108H332.316305c-4.74311 0-8.667266 3.41231-8.667266 7.438835 0 4.060648 3.924156 7.438835 8.667266 7.438835H706.714919c4.74311 0 8.667266-3.378187 8.667266-7.438835s-3.958279-7.438835-8.667266-7.438835h-179.965211V262.986704c11.362991 4.947849 22.998967 7.677697 34.60082 7.677697 8.462528 0 17.198041-1.467293 25.660569-4.197141 74.797827-24.568629 120.795761-149.800393 122.604285-155.021227a8.018928 8.018928 0 0 0-3.685294-9.656836l0.784831-0.272985z m-70.703056 49.512613a300.897464 300.897464 0 0 0 45.486088-15.833117c0.98957-2.047386 1.87677-3.992402 2.729847-5.903296-11.362991 5.220834-26.957246 11.158253-48.352427 16.890933-55.518278 13.137392-82.475524 46.100303-95.681163 71.419641 2.559232-2.149755 5.254957-4.401879 8.15542-6.688127 14.672931-22.964844 40.879469-48.659535 87.662235-59.886034z m-102.437535 96.090639c1.467293 0.682462 2.900463 1.296678 4.333633 1.87677 16.344963-16.379086 53.300277-48.796028 103.802459-66.608284a8.360159 8.360159 0 0 0 5.357326-10.168682 8.462528 8.462528 0 0 1-5.391449 5.459695c-54.187477 18.835949-93.019561 54.050985-108.101969 69.440501zM331.906828 106.088707a8.940251 8.940251 0 0 0-10.680529 0.341231c1.023693-5.562065 8.087174-8.530774 13.34213-4.913726 14.263454 10.168683 36.47759 20.815089 70.293579 30.506048 102.028058 29.277617 105.201506 79.131461 105.201506 80.359892v11.670099a131.169183 131.169183 0 0 0-1.43317-1.603786v-4.538371c0-1.262555-3.207571-51.525876-106.088706-81.076477-33.850112-9.759206-56.234863-20.473858-70.63481-30.74491z m13.853977 43.745809a7.950681 7.950681 0 0 1 1.842647-10.100436c-0.272985 1.706155 0 3.514679 0.98957 5.18671 5.527942 9.690959 18.767703 23.067213 52.037722 32.485188 48.898397 13.8881 108.647939 55.313539 109.705755 83.840448v0.98957l-2.218001-0.204739c-7.234096-28.390416-63.400713-66.198807-109.842248-79.404445-33.577127-9.520344-46.919258-23.03309-52.515445-32.758173z m165.63351-115.267819a8.769636 8.769636 0 0 1 9.110867-4.197141 8.121297 8.121297 0 0 0-5.118465 3.992402h0.238862c-26.650138 46.953381-17.607518 82.850878-5.562065 104.484921v7.336466c-13.99047-20.61035-28.799893-59.271818 1.569663-111.582525h-0.238862z m19.654904 13.853977v97.489686c-1.126062 1.364924-2.320371 2.661602-3.548802 3.992403V48.693659a8.462528 8.462528 0 0 0-7.370589-8.053051 8.394282 8.394282 0 0 1 10.919391 7.814189z" p-id="3738" fill="#1afa29"></path><path d="M113.791996 767.394315c62.581759 153.383318 222.550835 256.264454 397.875304 256.264454l0.375354 0.341231c126.630811 0 245.788663-52.310707 327.069879-143.248759 64.083175-71.590256 99.298211-162.528308 99.29821-256.264454 0-110.558832-47.192242-213.439968-132.636475-289.602719a13.649239 13.649239 0 0 0-18.358226 0.341231 11.635976 11.635976 0 0 0 0.375354 17.198041c80.189277 71.624379 124.378686 168.158619 124.378686 272.063447 0 88.105835-32.962911 173.413576-93.258422 240.840815-76.435736 85.307741-188.461861 134.445-307.24436 134.445-164.814556 0-315.058549-96.909594-373.886767-240.806692a350.819554 350.819554 0 0 1-26.616016-134.445c0-87.798727 32.997034-173.106468 92.541838-240.158352a11.397114 11.397114 0 0 0-1.467293-17.198041 13.308008 13.308008 0 0 0-18.358226 1.399047C120.138892 440.222067 85.333333 530.750641 85.333333 624.145556c0 49.47849 9.725082 97.592056 28.458663 143.248759z" p-id="3739" fill="#1afa29"></path><path d="M276.081442 653.798527c-4.094772 5.357326-9.793329 9.383852-17.061548 12.113699-7.234096 2.729848-15.491886 4.128895-24.705122 4.128895-9.486221 0-17.880503-2.149755-25.182845-6.449265a43.268086 43.268086 0 0 1-16.959179-18.426472 65.140991 65.140991 0 0 1-6.142157-28.015062v-8.872005c0-17.061548 4.094772-30.403679 12.284315-39.992269 8.189543-9.622713 19.62078-14.468193 34.293711-14.468193 12.625546 0 22.58949 3.105202 30.028325 9.349728 7.404712 6.210404 11.840714 15.150655 13.376254 26.854877h-19.313673c-2.149755-13.615115-10.066313-20.405612-23.715552-20.405612-8.803759 0-15.526009 3.173448-20.132626 9.554467-4.572495 6.312773-6.926989 15.594255-7.063481 27.87857v8.70139c0 12.216069 2.559232 21.702289 7.677696 28.492785a25.660568 25.660568 0 0 0 21.565797 10.100437c10.03219 0 17.198041-2.286247 21.463428-6.82462v-22.145889h-23.340198v-14.911793H276.081442v43.336332z" p-id="3740" fill="#1afa29"></path><path d="M292.324036 625.681096c0-8.223666 1.637909-15.628378 4.913726-22.180013 3.241694-6.654004 7.848312-11.738345 13.751608-15.253024 5.903296-3.582925 12.693792-5.357326 20.371488-5.357326 11.362991 0 20.576227 3.651171 27.639708 10.919391 7.063481 7.336466 10.919391 17.027425 11.465361 29.072878l0.102369 4.436002c0 8.291912-1.603786 15.696624-4.84548 22.214136-3.139325 6.517511-7.71182 11.601853-13.649238 15.150655a38.90033 38.90033 0 0 1-20.542104 5.357326c-11.874838 0-21.395181-3.924156-28.561032-11.806591-7.097604-7.916558-10.646406-18.426472-10.646406-31.597988v-0.955446z m18.904196 1.637908c0 8.633143 1.774401 15.42364 5.357326 20.337366 3.582925 4.879603 8.530774 7.336466 14.945916 7.336465a17.163917 17.163917 0 0 0 14.843547-7.472958c3.582925-4.981972 5.357326-12.250192 5.357326-21.838781 0-8.496651-1.842647-15.218901-5.527942-20.200873a17.402779 17.402779 0 0 0-14.843547-7.438835 17.334533 17.334533 0 0 0-14.672931 7.370588c-3.651171 4.879603-5.459695 12.181945-5.459695 21.907028zM432.058116 594.629078c-6.108034 7.745943-9.179113 18.153487-9.179113 31.222633 0 13.819854 3.139325 24.636876 9.349728 32.451065 6.27865 7.848312 14.3317 11.738345 24.193276 11.738345a27.844447 27.844447 0 0 0 21.770535-9.076744v5.664434c0 6.585758-1.808524 11.533607-5.459695 14.911793-3.617048 3.41231-8.564897 5.118464-14.843547 5.118465-8.530774 0-15.662501-3.41231-21.463428-10.339298l-8.940251 11.362991c3.071079 4.128895 7.507081 7.507081 13.376254 10.03219 5.903296 2.593355 11.943084 3.85591 18.085241 3.85591 11.704222 0 20.951581-3.173448 27.810323-9.554467 6.892865-6.346896 10.339298-15.048286 10.339299-26.104169v-81.485954h-17.061549l-0.853077 8.496651c-5.459695-6.688127-13.035023-10.03219-22.623613-10.03219a29.652971 29.652971 0 0 0-24.500383 11.738345z m14.775301 52.822553c-3.41231-4.879603-5.118464-11.533607-5.118465-19.962011 0-9.58859 1.706155-16.85681 5.118465-21.770536a16.788563 16.788563 0 0 1 14.570562-7.370589c7.60945 0 13.205638 3.173448 16.788563 9.554467v36.989437a18.18761 18.18761 0 0 1-16.959179 9.759206c-6.142157 0-10.919391-2.388617-14.399946-7.199974z" p-id="3741" fill="#1afa29"></path><path d="M560.59982 601.692559a46.953381 46.953381 0 0 0-7.677697-0.614216c-8.667266 0-14.502316 3.30994-17.505148 9.929821v57.497418h-18.904196v-84.07931h18.051118l0.477724 9.417975a21.292812 21.292812 0 0 1 18.972441-10.953514c2.695725 0 4.913726 0.341231 6.688127 1.091939l-0.102369 17.709887z" p-id="3742" fill="#1afa29"></path><path d="M578.8898 658.780499c7.472958 7.507081 17.198041 11.260622 29.175247 11.260622 6.995235 0 13.308008-1.364924 18.870072-4.094772 5.664434-2.832217 10.168683-6.72225 13.54687-11.738345l-10.202806-9.725082a25.592322 25.592322 0 0 1-21.15632 10.509913 21.019827 21.019827 0 0 1-15.355393-6.073911 25.319338 25.319338 0 0 1-6.961112-16.481455h55.006431v-7.609451c0-13.342131-3.139325-23.681429-9.417974-30.983771-6.210404-7.302343-15.048286-10.953514-26.513646-10.953514a36.136359 36.136359 0 0 0-33.304142 20.985704 50.46806 50.46806 0 0 0-4.777234 22.452998v2.32037c0 12.523176 3.685294 22.58949 11.090007 30.130694z m14.3317-55.279416a16.037855 16.037855 0 0 1 12.5573-5.459695c5.254957 0 9.349728 1.637909 12.284314 4.879602 2.968709 3.207571 4.674864 7.984805 5.084342 14.331701v1.364924h-35.999867a28.32217 28.32217 0 0 1 6.039788-15.150655zM693.577527 670.041121c-11.943084 0-21.668166-3.753541-29.141125-11.260622-7.404712-7.541204-11.124129-17.607518-11.124129-30.130694v-2.354494c0-8.360159 1.603786-15.86724 4.811357-22.418874a36.136359 36.136359 0 0 1 33.270019-20.985704c11.46536 0 20.303242 3.651171 26.547769 10.919391 6.27865 7.336466 9.383852 17.675764 9.383851 31.052017v7.575328h-54.938185a25.319338 25.319338 0 0 0 6.892865 16.481455c4.094772 4.026525 9.213236 6.073911 15.389517 6.073911a25.592322 25.592322 0 0 0 21.15632-10.509913l10.202805 9.725082a34.293712 34.293712 0 0 1-13.546869 11.704222c-5.596188 2.729848-11.908961 4.128895-18.904195 4.128895z m-2.252125-71.999733a16.037855 16.037855 0 0 0-12.591422 5.459695 28.32217 28.32217 0 0 0-6.073911 15.116532h36.033989v-1.364924c-0.4436-6.346896-2.115632-11.124129-5.084341-14.331701a15.730747 15.730747 0 0 0-12.284315-4.879602z" p-id="3743" fill="#1afa29"></path><path d="M760.151688 594.151355l-0.54597-9.725083h-17.812256v84.07931h18.904195v-59.817788a18.221733 18.221733 0 0 1 17.061549-10.339299c5.220834 0 8.974374 1.296678 11.260621 3.890033 2.320371 2.525109 3.480556 6.483388 3.480556 11.806592v54.460462h18.904196v-55.552401c-0.341231-20.030258-9.213236-30.062448-26.752508-30.062448a30.267187 30.267187 0 0 0-24.500383 11.260622z" p-id="3744" fill="#1afa29"></path></svg>