<?xml version="1.0" standalone="no"?><!DOCTYPE svg PUBLIC "-//W3C//DTD SVG 1.1//EN" "http://www.w3.org/Graphics/SVG/1.1/DTD/svg11.dtd"><svg t="1645866054504" class="icon" viewBox="0 0 1024 1024" version="1.1" xmlns="http://www.w3.org/2000/svg" p-id="4653" xmlns:xlink="http://www.w3.org/1999/xlink" width="200" height="200"><defs><style type="text/css"></style></defs><path d="M956 425L799.3 155.3c-6.5-11.3-19.5-18.4-33.6-18.4H258.1c-14.1 0-27.1 7-33.6 18.4L67.7 425c-7.3 12.5-5.2 27.8 5.1 38.4l410.5 420.2c7.2 7.4 17.6 11.6 28.5 11.6 10.9 0 21.3-4.3 28.5-11.7l410.5-420.2c10.5-10.4 12.5-25.7 5.2-38.3z m-145.3 35.8L534.3 751.7c-5.8 6.4-19.4 10.7-31.3-1.3L338 584c-5.8-5.9-6.6-15.2 3.7-15.2H418c6.6 0 11.5 1.8 13.7 4.1l72.6 68.3c11.9 10.6 22.9 10.4 32.5 0L649.5 518c3.5-3.9 0.8-10.1-4.4-10.1H286.7c-11.7 0-16.4-1.8-20-6.3l-53.3-54.5c-4.7-5.9-5.5-14.1-2-20.8l88-163.5c4.5-8.6 13.2-13.9 22.8-13.9h406.7c7.1 0 13.7 3.9 17.3 10.1L807 363c5.2 8.8 0.6 16.5-11.2 16.5H747c-6.2 0.1-12.9-3-16.2-8.3l-26.7-43.9c-3.3-5.4-8.4-6.2-14.6-6.2H369.3c-6.1 0-11.9 3.6-15 8.9l-38.8 72.4c-5.5 11.9-7.3 31.8 11.3 31.8h471.5c18.9 0 19 20.6 12.4 26.6z" fill="#d81e06" p-id="4654"></path></svg>