<?xml version="1.0" standalone="no"?><!DOCTYPE svg PUBLIC "-//W3C//DTD SVG 1.1//EN" "http://www.w3.org/Graphics/SVG/1.1/DTD/svg11.dtd"><svg t="1645866510462" class="icon" viewBox="0 0 1024 1024" version="1.1" xmlns="http://www.w3.org/2000/svg" p-id="6724" xmlns:xlink="http://www.w3.org/1999/xlink" width="200" height="200"><defs><style type="text/css"></style></defs><path d="M512.73820737 511.6097002m-508.01437808 0a508.01437925 508.01437925 0 1 0 1016.02875734 0 508.01437925 508.01437925 0 1 0-1016.02875734 0Z" fill="#212121" p-id="6725"></path><path d="M1021.07589044 510.88989228a508.78298895 508.78298895 0 0 1-238.75699715 431.40961697 0.39040477 0.39040477 0 0 1-0.22570261 0.11590157l-174.58419316-217.55313243 144.63281698 15.92729973s69.44937254 7.18588997 85.27297054 0c14.47548167-5.72187207 92.56256224-115.67575195 92.56256225-115.67575195s-224.17781495-141.70477881-300.80697695-219.79795989c8.75360961-131.60915219-10.09562662-306.64475058-10.09562661-305.186832-56.43790877 56.32810773-63.62379875 65.07561681-120.05560818 117.13367051-24.57110828-79.54499914-36.13075399-107.03194339-60.69576176-186.58304305-73.83532692 60.69576175-130.15733414 163.47595268-170.66184384 283.53156088a479.87472569 479.87472569 0 0 0-25.80332306 31.07988923 669.07470179 669.07470179 0 0 0-16.27500442 22.32628082 698.73937373 698.73937373 0 0 0-31.2994937 48.80061238 1052.2815134 1052.2815134 0 0 0-20.75856001 36.91766406c-47.01329066 88.30470926-85.60847538 189.51108006-119.04299551 280.61572372a5.23386609 5.23386609 0 0 1-0.56120627-1.12241373C-37.51310101 544.26341077-4.04198134 318.93268185 138.23620595 165.07654967c142.28428663-153.86223153 364.3087748-204.80397203 559.43802404-128.37611176 195.12925041 76.43395961 323.48096246 264.63352288 323.40776097 474.19555371z" fill="#E53935" p-id="6726"></path><path d="M526.48168009 330.02262077s-8.63770804-50.60013513-14.47548167-69.3395703c39.04658995-37.69847361 44.87826306-43.42034568 82.47303614-79.55109966 2.90973662 72.25540745 1.45181806 109.84407884-2.92193648 198.14268876-21.65527231-21.76507336-65.07561681-49.25811812-65.07561799-49.25811931z m-169.19782475 248.74892323s-40.50450853-24.57110828-70.90728993-28.83506177c8.75360961-20.3132553 31.86680049-46.34228216 37.69847361-53.5220728-11.66944675 4.27005401-95.47839939 41.85262605-104.23200899 73.71332603a456.22472824 456.22472824 0 0 1 69.44937253 23.11929022 219.56615676 219.56615676 0 0 0-53.51597229 122.96534481s133.06707077-20.30715478 232.92532522-7.28959169c1.72632127 1.02481253 3.70884655 1.52501954 5.72187089 1.4579174l52.05805371 1.45791857 165.37307662 275.33915755 1.35421687 2.13502642c-0.22570261 0.10980104-0.34160417 0.21960328-0.45140522 0.21960327-311.91521625 112.75991598-537.32524715-94.80739088-585.45485103-167.39830199 0.2013029-0.62220792 0.35380403-1.25661568 0.45140522-1.90322447 43.31054345-183.11209897 96.71671468-402.23905035 182.99619741-466.97306298 44.87826306-78.20298213 57.88972683-193.87873408 138.78894283-254.58059636 20.30715478 60.69576175 52.17395527 186.58914239 73.82922759 247.28490415 95.48449872 95.48449872 240.09901534 214.07608781 336.93163042 263.21830557 10.09562662 5.83167312 23.11318971 46.33618165 23.11319088 46.33618164l-39.04659113 49.14221774-416.48272889-41.9624271a332.21017118 332.21017118 0 0 0-27.93835066-1.12241491 529.71845099 529.71845099 0 0 0-86.27948389 8.30220437c20.19125322-50.60013513 63.61769942-91.10464367 63.61769823-91.10464367z m134.52498933-53.52207162c23.11318971-2.80603492 47.68429917 5.83777363 75.17124461 21.7711727 26.02902686-7.29569103 28.944864-8.75360961 54.9799902-15.93340024-33.32471788-24.57110828-69.44937254-50.60013513-118.59768962-43.4203445a288.21031886 288.21031886 0 0 0-11.55964452 37.58257204z" fill="#FFFFFF" p-id="6727"></path></svg>